<svg width="24" height="24" viewBox="0 0 24 24" fill="none" xmlns="http://www.w3.org/2000/svg">
<path d="M12 0.857422V7.71456" stroke="black" stroke-width="1.71429" stroke-linecap="round" stroke-linejoin="round"/>
<path d="M0.856934 7.71484H23.1426V21.4291C23.1426 21.8838 22.962 22.3198 22.6405 22.6413C22.3191 22.9628 21.883 23.1434 21.4284 23.1434H2.57122C2.11656 23.1434 1.68053 22.9628 1.35904 22.6413C1.03755 22.3198 0.856934 21.8838 0.856934 21.4291V7.71484Z" stroke="black" stroke-width="1.71429" stroke-linecap="round" stroke-linejoin="round"/>
<path d="M0.856934 7.71456L3.42836 2.76028C3.70558 2.20189 4.12979 1.72965 4.65538 1.39436C5.18096 1.05908 5.78801 0.87344 6.41122 0.857422H17.5884C18.2262 0.85776 18.8513 1.03603 19.3934 1.37219C19.9355 1.70834 20.3731 2.18906 20.6569 2.76028L23.1426 7.71456" stroke="black" stroke-width="1.71429" stroke-linecap="round" stroke-linejoin="round"/>
<path d="M16.2819 12L11.1459 18.8571L7.71729 16.2891" stroke="black" stroke-width="1.71429" stroke-linecap="round" stroke-linejoin="round"/>
</svg>
