<svg width="24" height="24" viewBox="0 0 24 24" fill="none" xmlns="http://www.w3.org/2000/svg">
<path d="M7.71408 21.4289L0.856934 23.1431L2.57122 18.0003V2.57171C2.57122 2.11705 2.75183 1.68102 3.07332 1.35952C3.39481 1.03803 3.83085 0.857422 4.28551 0.857422H21.4284C21.883 0.857422 22.3191 1.03803 22.6405 1.35952C22.962 1.68102 23.1426 2.11705 23.1426 2.57171V19.7146C23.1426 20.1692 22.962 20.6053 22.6405 20.9267C22.3191 21.2482 21.883 21.4289 21.4284 21.4289H7.71408Z" stroke="black" stroke-width="1.71429" stroke-linecap="round" stroke-linejoin="round"/>
<path d="M12.8569 5.14355V11.1436" stroke="black" stroke-width="1.71429" stroke-linecap="round" stroke-linejoin="round"/>
<path d="M12.8568 15.8571C12.7431 15.8571 12.6341 15.812 12.5537 15.7316C12.4734 15.6512 12.4282 15.5422 12.4282 15.4286C12.4282 15.3149 12.4734 15.2059 12.5537 15.1255C12.6341 15.0452 12.7431 15 12.8568 15" stroke="black" stroke-width="1.71429" stroke-linecap="round" stroke-linejoin="round"/>
<path d="M12.8569 15.8571C12.9706 15.8571 13.0796 15.812 13.16 15.7316C13.2404 15.6512 13.2855 15.5422 13.2855 15.4286C13.2855 15.3149 13.2404 15.2059 13.16 15.1255C13.0796 15.0452 12.9706 15 12.8569 15" stroke="black" stroke-width="1.71429" stroke-linecap="round" stroke-linejoin="round"/>
</svg>
