<svg width="24" height="24" viewBox="0 0 24 24" fill="none" xmlns="http://www.w3.org/2000/svg">
<path d="M12.8569 0.857422H4.28551C3.83085 0.857422 3.39481 1.03803 3.07332 1.35952C2.75183 1.68102 2.57122 2.11705 2.57122 2.57171V18.0003L0.856934 23.1431L7.71408 21.4289H21.4284C21.883 21.4289 22.3191 21.2482 22.6405 20.9267C22.962 20.6053 23.1426 20.1692 23.1426 19.7146V11.1431" stroke="black" stroke-width="1.71429" stroke-linecap="round" stroke-linejoin="round"/>
<path d="M14.3362 13.9498L9.19336 14.8755L10.0505 9.66412L18.1591 1.58984C18.3183 1.42895 18.5079 1.30123 18.7168 1.21407C18.9257 1.12691 19.1498 1.08203 19.3762 1.08203C19.6026 1.08203 19.8267 1.12691 20.0356 1.21407C20.2445 1.30123 20.4341 1.42895 20.5934 1.58984L22.4105 3.40698C22.571 3.56646 22.6983 3.7561 22.7852 3.96499C22.8721 4.17387 22.9169 4.39788 22.9169 4.62412C22.9169 4.85036 22.8721 5.07437 22.7852 5.28326C22.6983 5.49214 22.571 5.68178 22.4105 5.84126L14.3362 13.9498Z" stroke="black" stroke-width="1.71429" stroke-linecap="round" stroke-linejoin="round"/>
</svg>
