<svg width="25" height="25" viewBox="0 0 25 25" fill="none" xmlns="http://www.w3.org/2000/svg">
<path d="M12.1431 20.1025H23.2859" stroke="#83DCB7" stroke-width="1.71429" stroke-linecap="round" stroke-linejoin="round"/>
<path d="M20.1021 16.9189L23.2855 20.1024L20.1021 23.2858" stroke="#83DCB7" stroke-width="1.71429" stroke-linecap="round" stroke-linejoin="round"/>
<path d="M5.77588 3.388C5.77588 4.02134 6.02747 4.62873 6.47531 5.07657C6.92314 5.52441 7.53054 5.776 8.16388 5.776C8.79722 5.776 9.40461 5.52441 9.85245 5.07657C10.3003 4.62873 10.5519 4.02134 10.5519 3.388C10.5519 2.75466 10.3003 2.14727 9.85245 1.69943C9.40461 1.25159 8.79722 1 8.16388 1C7.53054 1 6.92314 1.25159 6.47531 1.69943C6.02747 2.14727 5.77588 2.75466 5.77588 3.388Z" stroke="#83DCB7" stroke-width="1.71429" stroke-linecap="round" stroke-linejoin="round"/>
<path d="M12.1431 11.347C12.1431 11.9803 12.3947 12.5877 12.8425 13.0356C13.2903 13.4834 13.8977 13.735 14.5311 13.735C15.1644 13.735 15.7718 13.4834 16.2196 13.0356C16.6675 12.5877 16.9191 11.9803 16.9191 11.347C16.9191 10.7136 16.6675 10.1062 16.2196 9.65841C15.7718 9.21058 15.1644 8.95898 14.5311 8.95898C13.8977 8.95898 13.2903 9.21058 12.8425 9.65841C12.3947 10.1062 12.1431 10.7136 12.1431 11.347Z" stroke="#83DCB7" stroke-width="1.71429" stroke-linecap="round" stroke-linejoin="round"/>
<path d="M7.3667 20.1019C7.3667 20.4155 7.42847 20.726 7.54847 21.0157C7.66848 21.3054 7.84438 21.5687 8.06613 21.7904C8.28787 22.0122 8.55113 22.1881 8.84085 22.3081C9.13058 22.4281 9.4411 22.4899 9.7547 22.4899C10.0683 22.4899 10.3788 22.4281 10.6685 22.3081C10.9583 22.1881 11.2215 22.0122 11.4433 21.7904C11.665 21.5687 11.8409 21.3054 11.9609 21.0157C12.0809 20.726 12.1427 20.4155 12.1427 20.1019C12.1427 19.7883 12.0809 19.4777 11.9609 19.188C11.8409 18.8983 11.665 18.635 11.4433 18.4133C11.2215 18.1915 10.9583 18.0157 10.6685 17.8956C10.3788 17.7756 10.0683 17.7139 9.7547 17.7139C9.4411 17.7139 9.13058 17.7756 8.84085 17.8956C8.55113 18.0157 8.28787 18.1915 8.06613 18.4133C7.84438 18.635 7.66848 18.8983 7.54847 19.188C7.42847 19.4777 7.3667 19.7883 7.3667 20.1019Z" stroke="#83DCB7" stroke-width="1.71429" stroke-linecap="round" stroke-linejoin="round"/>
<path d="M12.1427 11.3477H5.37808C4.23211 11.3703 3.14074 11.8415 2.33832 12.66C1.5359 13.4784 1.08643 14.5789 1.08643 15.7251C1.08643 16.8713 1.5359 17.9718 2.33832 18.7902C3.14074 19.6087 4.23211 20.0798 5.37808 20.1025H7.36665" stroke="#83DCB7" stroke-width="1.71429" stroke-linecap="round" stroke-linejoin="round"/>
<path d="M16.9186 11.3471H19.3066C20.3621 11.3471 21.3744 10.9278 22.1207 10.1815C22.867 9.43515 23.2863 8.4229 23.2863 7.36741C23.2863 6.31192 22.867 5.29967 22.1207 4.55333C21.3744 3.80699 20.3621 3.3877 19.3066 3.3877H10.5483" stroke="#83DCB7" stroke-width="1.71429" stroke-linecap="round" stroke-linejoin="round"/>
<path d="M5.776 3.3877H1" stroke="#83DCB7" stroke-width="1.71429" stroke-linecap="round" stroke-linejoin="round"/>
</svg>
