<svg width="25" height="25" viewBox="0 0 25 25" fill="none" xmlns="http://www.w3.org/2000/svg">
<path d="M7.85714 21.5714L1 23.2857L2.71429 18.1429V2.71429C2.71429 2.25963 2.8949 1.82359 3.21639 1.5021C3.53788 1.18061 3.97391 1 4.42857 1H21.5714C22.0261 1 22.4621 1.18061 22.7836 1.5021C23.1051 1.82359 23.2857 2.25963 23.2857 2.71429V19.8571C23.2857 20.3118 23.1051 20.7478 22.7836 21.0693C22.4621 21.3908 22.0261 21.5714 21.5714 21.5714H7.85714Z" stroke="#83DCB7" stroke-width="1.71429" stroke-linecap="round" stroke-linejoin="round"/>
<path d="M13 5.28613V11.2861" stroke="#83DCB7" stroke-width="1.71429" stroke-linecap="round" stroke-linejoin="round"/>
<path d="M12.9999 15.9997C12.8862 15.9997 12.7772 15.9546 12.6968 15.8742C12.6164 15.7938 12.5713 15.6848 12.5713 15.5711C12.5713 15.4575 12.6164 15.3485 12.6968 15.2681C12.7772 15.1877 12.8862 15.1426 12.9999 15.1426" stroke="#83DCB7" stroke-width="1.71429" stroke-linecap="round" stroke-linejoin="round"/>
<path d="M13 15.9997C13.1137 15.9997 13.2227 15.9546 13.303 15.8742C13.3834 15.7938 13.4286 15.6848 13.4286 15.5711C13.4286 15.4575 13.3834 15.3485 13.303 15.2681C13.2227 15.1877 13.1137 15.1426 13 15.1426" stroke="#83DCB7" stroke-width="1.71429" stroke-linecap="round" stroke-linejoin="round"/>
</svg>
