<svg width="25" height="25" viewBox="0 0 25 25" fill="none" xmlns="http://www.w3.org/2000/svg">
<path d="M13 1H4.42857C3.97391 1 3.53788 1.18061 3.21639 1.5021C2.8949 1.82359 2.71429 2.25963 2.71429 2.71429V18.1429L1 23.2857L7.85714 21.5714H21.5714C22.0261 21.5714 22.4621 21.3908 22.7836 21.0693C23.1051 20.7478 23.2857 20.3118 23.2857 19.8571V11.2857" stroke="#83DCB7" stroke-width="1.71429" stroke-linecap="round" stroke-linejoin="round"/>
<path d="M14.4793 14.0924L9.33643 15.0181L10.1936 9.8067L18.3021 1.73241C18.4614 1.57153 18.651 1.44381 18.8599 1.35665C19.0688 1.26949 19.2929 1.22461 19.5193 1.22461C19.7457 1.22461 19.9698 1.26949 20.1787 1.35665C20.3876 1.44381 20.5772 1.57153 20.7364 1.73241L22.5536 3.54956C22.714 3.70904 22.8414 3.89868 22.9283 4.10756C23.0152 4.31645 23.0599 4.54046 23.0599 4.7667C23.0599 4.99294 23.0152 5.21695 22.9283 5.42584C22.8414 5.63472 22.714 5.82436 22.5536 5.98384L14.4793 14.0924Z" stroke="#83DCB7" stroke-width="1.71429" stroke-linecap="round" stroke-linejoin="round"/>
</svg>
