<svg width="25" height="25" viewBox="0 0 25 25" fill="none" xmlns="http://www.w3.org/2000/svg">
<path d="M12.1431 1V7.85714" stroke="#83DCB7" stroke-width="1.71429" stroke-linecap="round" stroke-linejoin="round"/>
<path d="M1 7.85742H23.2857V21.5717C23.2857 22.0264 23.1051 22.4624 22.7836 22.7839C22.4621 23.1054 22.0261 23.286 21.5714 23.286H2.71429C2.25963 23.286 1.82359 23.1054 1.5021 22.7839C1.18061 22.4624 1 22.0264 1 21.5717V7.85742Z" stroke="#83DCB7" stroke-width="1.71429" stroke-linecap="round" stroke-linejoin="round"/>
<path d="M1 7.85714L3.57143 2.90286C3.84864 2.34446 4.27286 1.87222 4.79844 1.53694C5.32402 1.20166 5.93107 1.01602 6.55429 1H17.7314C18.3693 1.00034 18.9944 1.17861 19.5365 1.51476C20.0786 1.85092 20.5162 2.33164 20.8 2.90286L23.2857 7.85714" stroke="#83DCB7" stroke-width="1.71429" stroke-linecap="round" stroke-linejoin="round"/>
<path d="M16.4249 12.1426L11.2889 18.9997L7.86035 16.4317" stroke="#83DCB7" stroke-width="1.71429" stroke-linecap="round" stroke-linejoin="round"/>
</svg>
