<svg width="24" height="24" viewBox="0 0 24 24" fill="none" xmlns="http://www.w3.org/2000/svg">
<path d="M12 19.96H23.1429" stroke="black" stroke-width="1.71429" stroke-linecap="round" stroke-linejoin="round"/>
<path d="M19.959 16.7764L23.1424 19.9598L19.959 23.1432" stroke="black" stroke-width="1.71429" stroke-linecap="round" stroke-linejoin="round"/>
<path d="M5.63281 3.24542C5.63281 3.87876 5.8844 4.48616 6.33224 4.93399C6.78008 5.38183 7.38748 5.63342 8.02081 5.63342C8.65415 5.63342 9.26155 5.38183 9.70938 4.93399C10.1572 4.48616 10.4088 3.87876 10.4088 3.24542C10.4088 2.61208 10.1572 2.00469 9.70938 1.55685C9.26155 1.10901 8.65415 0.857422 8.02081 0.857422C7.38748 0.857422 6.78008 1.10901 6.33224 1.55685C5.8844 2.00469 5.63281 2.61208 5.63281 3.24542Z" stroke="black" stroke-width="1.71429" stroke-linecap="round" stroke-linejoin="round"/>
<path d="M12 11.2044C12 11.8377 12.2516 12.4451 12.6994 12.893C13.1473 13.3408 13.7547 13.5924 14.388 13.5924C15.0213 13.5924 15.6287 13.3408 16.0766 12.893C16.5244 12.4451 16.776 11.8377 16.776 11.2044C16.776 10.5711 16.5244 9.96367 16.0766 9.51583C15.6287 9.068 15.0213 8.81641 14.388 8.81641C13.7547 8.81641 13.1473 9.068 12.6994 9.51583C12.2516 9.96367 12 10.5711 12 11.2044Z" stroke="black" stroke-width="1.71429" stroke-linecap="round" stroke-linejoin="round"/>
<path d="M7.22363 19.9593C7.22363 20.2729 7.2854 20.5834 7.40541 20.8731C7.52542 21.1629 7.70132 21.4261 7.92306 21.6479C8.14481 21.8696 8.40806 22.0455 8.69778 22.1655C8.98751 22.2855 9.29804 22.3473 9.61163 22.3473C9.92523 22.3473 10.2358 22.2855 10.5255 22.1655C10.8152 22.0455 11.0785 21.8696 11.3002 21.6479C11.5219 21.4261 11.6978 21.1629 11.8179 20.8731C11.9379 20.5834 11.9996 20.2729 11.9996 19.9593C11.9996 19.6457 11.9379 19.3352 11.8179 19.0454C11.6978 18.7557 11.5219 18.4925 11.3002 18.2707C11.0785 18.049 10.8152 17.8731 10.5255 17.7531C10.2358 17.6331 9.92523 17.5713 9.61163 17.5713C9.29804 17.5713 8.98751 17.6331 8.69778 17.7531C8.40806 17.8731 8.14481 18.049 7.92306 18.2707C7.70132 18.4925 7.52542 18.7557 7.40541 19.0454C7.2854 19.3352 7.22363 19.6457 7.22363 19.9593Z" stroke="black" stroke-width="1.71429" stroke-linecap="round" stroke-linejoin="round"/>
<path d="M11.9996 11.2051H5.23501C4.08905 11.2278 2.99767 11.6989 2.19525 12.5174C1.39283 13.3358 0.943359 14.4363 0.943359 15.5825C0.943359 16.7287 1.39283 17.8292 2.19525 18.6476C2.99767 19.4661 4.08905 19.9373 5.23501 19.9599H7.22359" stroke="black" stroke-width="1.71429" stroke-linecap="round" stroke-linejoin="round"/>
<path d="M16.7756 11.2045H19.1636C20.219 11.2045 21.2313 10.7853 21.9776 10.0389C22.724 9.29257 23.1433 8.28032 23.1433 7.22483C23.1433 6.16935 22.724 5.15709 21.9776 4.41075C21.2313 3.66441 20.219 3.24512 19.1636 3.24512H10.4053" stroke="black" stroke-width="1.71429" stroke-linecap="round" stroke-linejoin="round"/>
<path d="M5.63293 3.24512H0.856934" stroke="black" stroke-width="1.71429" stroke-linecap="round" stroke-linejoin="round"/>
</svg>
