<?xml version="1.0" encoding="UTF-8"?>
<!DOCTYPE svg PUBLIC "-//W3C//DTD SVG 1.1//EN" "http://www.w3.org/Graphics/SVG/1.1/DTD/svg11.dtd">
<svg xmlns="http://www.w3.org/2000/svg" version="1.1" width="512px" height="512px" style="shape-rendering:geometricPrecision; text-rendering:geometricPrecision; image-rendering:optimizeQuality; fill-rule:evenodd; clip-rule:evenodd" xmlns:xlink="http://www.w3.org/1999/xlink">
<g><path style="opacity:0.994" fill="#e64c3c" d="M 242.5,7.5 C 314.066,5.2025 370.566,32.8692 412,90.5C 441.455,137.643 450.789,188.643 440,243.5C 429.131,303.221 404.798,356.554 367,403.5C 335.255,443.088 298.089,476.422 255.5,503.5C 184.147,458.317 130.313,397.65 94,321.5C 71.4763,271.026 63.4763,218.359 70,163.5C 82.5589,100.967 117.059,55.1337 173.5,26C 195.577,15.8995 218.577,9.73287 242.5,7.5 Z"/></g>
<g><path style="opacity:1" fill="#fefefe" d="M 242.5,67.5 C 308.896,65.9246 354.063,95.9246 378,157.5C 391.163,209.023 378.996,253.523 341.5,291C 299.891,325.1 253.891,332.434 203.5,313C 149.767,285.392 124.6,241.225 128,180.5C 137.32,125.513 168.487,89.3459 221.5,72C 228.664,70.621 235.664,69.121 242.5,67.5 Z"/></g>
<g><path style="opacity:1" fill="#26ae60" d="M 317.5,136.5 C 330.685,134.238 338.352,139.571 340.5,152.5C 340.589,156.067 339.755,159.4 338,162.5C 303.863,198.304 269.363,233.804 234.5,269C 227.972,273.098 221.305,273.432 214.5,270C 199.675,257.174 185.508,243.674 172,229.5C 167.604,215.609 172.438,207.275 186.5,204.5C 191.365,204.51 195.698,206.01 199.5,209C 207.03,216.865 214.864,224.365 223,231.5C 254.088,199.246 285.588,167.579 317.5,136.5 Z"/></g>
</svg>
