<?xml version="1.0" encoding="UTF-8"?>
<!DOCTYPE svg PUBLIC "-//W3C//DTD SVG 1.1//EN" "http://www.w3.org/Graphics/SVG/1.1/DTD/svg11.dtd">
<svg xmlns="http://www.w3.org/2000/svg" version="1.1" width="512px" height="512px" style="shape-rendering:geometricPrecision; text-rendering:geometricPrecision; image-rendering:optimizeQuality; fill-rule:evenodd; clip-rule:evenodd" xmlns:xlink="http://www.w3.org/1999/xlink">
<g><path style="opacity:0.997" fill="#fea91a" d="M 345.5,64.5 C 363.458,87.6831 373.791,114.016 376.5,143.5C 357.5,143.5 338.5,143.5 319.5,143.5C 303.909,110.798 277.909,95.9647 241.5,99C 210.439,106.394 190.939,125.561 183,156.5C 179.285,189.565 191.451,214.731 219.5,232C 253.787,247.209 283.62,241.043 309,213.5C 313.541,207.751 317.041,201.418 319.5,194.5C 336.5,194.5 353.5,194.5 370.5,194.5C 365.986,213.198 359.486,231.198 351,248.5C 321.46,302.395 284.626,350.895 240.5,394C 238.801,394.958 236.967,395.458 235,395.5C 232.195,395.179 229.695,394.179 227.5,392.5C 206.589,372.602 187.923,350.936 171.5,327.5C 161.319,312.468 151.653,297.134 142.5,281.5C 124.81,248.576 115.143,213.409 113.5,176C 115.467,121.704 139.134,80.0378 184.5,51C 218.934,31.8433 255.267,27.1766 293.5,37C 313.081,42.2863 330.415,51.453 345.5,64.5 Z"/></g>
<g><path style="opacity:1" fill="#ffc71c" d="M 244.5,40.5 C 282.957,38.3726 316.457,50.0392 345,75.5C 346.5,80.6667 344.667,82.5 339.5,81C 307.722,53.5247 271.056,43.5247 229.5,51C 188.22,61.2768 158.72,85.7768 141,124.5C 129.873,152.375 127.54,181.042 134,210.5C 145.862,255.557 166.195,296.224 195,332.5C 202.43,341.686 210.096,350.686 218,359.5C 220.551,363.306 219.718,365.973 215.5,367.5C 177.855,329.266 150.022,284.6 132,233.5C 113.714,182.092 120.381,134.425 152,90.5C 176.114,61.3603 206.947,44.6936 244.5,40.5 Z"/></g>
<g><path style="opacity:1" fill="#f69118" d="M 345.5,64.5 C 351.129,68.4608 356.129,73.1275 360.5,78.5C 359.761,78.369 359.094,78.5357 358.5,79C 373.104,98.0509 381.771,119.551 384.5,143.5C 381.833,143.5 379.167,143.5 376.5,143.5C 373.791,114.016 363.458,87.6831 345.5,64.5 Z"/></g>
<g><path style="opacity:1" fill="#f07b1a" d="M 360.5,78.5 C 377.55,96.9319 388.55,118.599 393.5,143.5C 369.006,144.498 344.339,144.831 319.5,144.5C 319.5,144.167 319.5,143.833 319.5,143.5C 338.5,143.5 357.5,143.5 376.5,143.5C 379.167,143.5 381.833,143.5 384.5,143.5C 381.771,119.551 373.104,98.0509 358.5,79C 359.094,78.5357 359.761,78.369 360.5,78.5 Z"/></g>
<g><path style="opacity:1" fill="#fffdfd" d="M 319.5,143.5 C 319.5,143.833 319.5,144.167 319.5,144.5C 288.165,144.333 256.832,144.5 225.5,145C 223.667,145.5 222.5,146.667 222,148.5C 221.333,162.167 221.333,175.833 222,189.5C 222.785,191.286 223.951,192.786 225.5,194C 256.832,194.5 288.165,194.667 319.5,194.5C 317.041,201.418 313.541,207.751 309,213.5C 283.62,241.043 253.787,247.209 219.5,232C 191.451,214.731 179.285,189.565 183,156.5C 190.939,125.561 210.439,106.394 241.5,99C 277.909,95.9647 303.909,110.798 319.5,143.5 Z"/></g>
<g><path style="opacity:0.994" fill="#e63950" d="M 395.5,194.5 C 391.5,194.5 387.5,194.5 383.5,194.5C 379.167,194.5 374.833,194.5 370.5,194.5C 353.5,194.5 336.5,194.5 319.5,194.5C 288.165,194.667 256.832,194.5 225.5,194C 223.951,192.786 222.785,191.286 222,189.5C 221.333,175.833 221.333,162.167 222,148.5C 222.5,146.667 223.667,145.5 225.5,145C 256.832,144.5 288.165,144.333 319.5,144.5C 344.339,144.831 369.006,144.498 393.5,143.5C 397.167,143.5 400.833,143.5 404.5,143.5C 404.334,136.825 404.5,130.158 405,123.5C 407.206,119.875 410.373,118.708 414.5,120C 440.413,134.537 465.913,149.704 491,165.5C 492.569,170.625 491.069,174.459 486.5,177C 462.67,190.414 439.003,204.081 415.5,218C 411.409,219.227 407.909,218.394 405,215.5C 404.5,208.508 404.334,201.508 404.5,194.5C 401.5,194.5 398.5,194.5 395.5,194.5 Z"/></g>
<g><path style="opacity:1" fill="#f79218" d="M 370.5,194.5 C 374.833,194.5 379.167,194.5 383.5,194.5C 377.282,222.283 367.116,248.617 353,273.5C 324.935,321.591 290.769,365.091 250.5,404C 248.722,404.704 246.888,405.204 245,405.5C 242.292,404.891 239.792,403.891 237.5,402.5C 233.833,399.5 230.5,396.167 227.5,392.5C 229.695,394.179 232.195,395.179 235,395.5C 236.967,395.458 238.801,394.958 240.5,394C 284.626,350.895 321.46,302.395 351,248.5C 359.486,231.198 365.986,213.198 370.5,194.5 Z"/></g>
<g><path style="opacity:1" fill="#ee7917" d="M 383.5,194.5 C 387.5,194.5 391.5,194.5 395.5,194.5C 390.467,224.934 380.467,253.6 365.5,280.5C 355.841,295.828 346.174,311.162 336.5,326.5C 314.199,356.51 289.866,385.01 263.5,412C 257.833,416.667 252.167,416.667 246.5,412C 243.296,408.964 240.296,405.797 237.5,402.5C 239.792,403.891 242.292,404.891 245,405.5C 246.888,405.204 248.722,404.704 250.5,404C 290.769,365.091 324.935,321.591 353,273.5C 367.116,248.617 377.282,222.283 383.5,194.5 Z"/></g>
<g><path style="opacity:0.992" fill="#478bf6" d="M 365.5,280.5 C 394.883,290.928 418.383,308.928 436,334.5C 450.857,363.555 448.191,390.889 428,416.5C 404.435,441.378 375.935,458.211 342.5,467C 295.024,479.59 247.024,481.924 198.5,474C 161.592,468.153 128.258,454.153 98.5,432C 84.0024,420.494 73.8357,405.994 68,388.5C 61.7553,362.812 67.4219,340.146 85,320.5C 101.374,303.395 120.541,290.395 142.5,281.5C 151.653,297.134 161.319,312.468 171.5,327.5C 159.584,332.872 149.417,340.538 141,350.5C 132.165,364.005 132.498,377.338 142,390.5C 154.535,403.353 169.369,412.519 186.5,418C 229.626,429.953 272.959,430.62 316.5,420C 336.771,414.951 354.271,405.118 369,390.5C 379.533,375.303 378.866,360.636 367,346.5C 358.059,337.947 347.892,331.281 336.5,326.5C 346.174,311.162 355.841,295.828 365.5,280.5 Z"/></g>
<g><path style="opacity:1" fill="#2366d2" d="M 336.5,326.5 C 347.892,331.281 358.059,337.947 367,346.5C 378.866,360.636 379.533,375.303 369,390.5C 354.271,405.118 336.771,414.951 316.5,420C 272.959,430.62 229.626,429.953 186.5,418C 169.369,412.519 154.535,403.353 142,390.5C 132.498,377.338 132.165,364.005 141,350.5C 149.417,340.538 159.584,332.872 171.5,327.5C 187.923,350.936 206.589,372.602 227.5,392.5C 230.5,396.167 233.833,399.5 237.5,402.5C 240.296,405.797 243.296,408.964 246.5,412C 252.167,416.667 257.833,416.667 263.5,412C 289.866,385.01 314.199,356.51 336.5,326.5 Z"/></g>
</svg>
